<?xml version="1.0" standalone="no"?><!DOCTYPE svg PUBLIC "-//W3C//DTD SVG 1.1//EN" "http://www.w3.org/Graphics/SVG/1.1/DTD/svg11.dtd"><svg t="1564998656316" class="icon" viewBox="0 0 1024 1024" version="1.1" xmlns="http://www.w3.org/2000/svg" p-id="7255" xmlns:xlink="http://www.w3.org/1999/xlink" width="200" height="200"><defs><style type="text/css"></style></defs><path d="M512 63.0784a358.8096 358.8096 0 1 0 358.673067 358.673067A358.673067 358.673067 0 0 0 512 63.0784zM641.706667 620.544l-129.160534-68.266667-129.160533 68.266667 24.712533-143.7696-104.994133-101.853867 144.315733-21.026133 64.580267-130.798933 64.580267 130.798933 144.315733 21.026133-104.448 101.853867zM616.448 798.446933L709.973333 960.9216l40.96-117.282133 121.924267 23.3472-92.842667-160.9728a390.3488 390.3488 0 0 1-163.566933 92.433066z" fill="#F6BC64" p-id="7256"></path><path d="M151.005867 866.986667L273.066667 843.639467l40.96 117.282133 93.934933-162.474667a390.3488 390.3488 0 0 1-163.84-92.433066z" fill="#F6BC64" p-id="7257"></path></svg>